# Rhino

g object_1
v -101.584300629505 99.41309830016738 172.6622383045961
v -89.65112878539463 80.39473554202382 158.7433967253956
v -112.4767846921772 88.51910373853079 151.3806573772814
v -74.33834202227591 61.69337821121431 138.9978015572062
v -100.839486624914 66.03429153969338 139.8022304320933
v -127.2214014869599 73.77393488321289 138.5341473826974
v -55.17637835116238 42.2765504267621 109.8795219772776
v -85.39716499121229 43.8252642482272 120.1574706541629
v -115.9638597278673 48.00325837875761 131.008749531887
v -146.0875105499948 54.90769547255161 138.2066374701792
v -31.19963980778989 20.63283312335921 67.0992469821588
v -65.49039114926155 21.66923476814191 88.42572116549721
v -100.5833612066026 23.2807608105029 112.8469853692086
v -135.6557286714695 26.21036205072679 136.5182983383486
v -169.8905512968438 31.10578951680279 155.6434541400272
v 0 0 0
v -40.20066863296205 -0.0009814409515058742 40.1991964715348
v -80.39986702137374 -0.0009814409515058742 80.39839294306961
v -120.5990519916474 -0.001962881903011748 120.5975855808507
v -160.7982676319508 -0.002944322854489201 160.7967858861392
v -200.9974602697319 -0.002944322854489201 200.9959785239203
v -120.6019963145019 111.3454573884898 158.7433967253956
v -134.963920145767 100.156049100452 139.8022304320933
v -139.3047261291421 126.6569176728225 138.9978015572062
v -152.9939411957216 85.03204403785563 131.008749531887
v -157.1728247571143 115.5990224722856 120.1574706541629
v -158.7227960497984 145.8200429713122 109.8795219772776
v -174.7848133017899 65.33943134603228 136.5182983383486
v -177.7169601544817 100.4122051887932 112.8469853692086
v -179.3302190535227 135.5055892915356 88.42572116549721
v -180.3650105217444 169.7951732550005 67.0992469821588
v -200.9989324311591 40.19589560958471 160.7967858861392
v -200.9989324311591 80.3957169829753 120.5975855808507
v -200.9989324311591 120.5945569154144 80.39839294306961
v -200.9989324311591 160.7948690092808 40.1991964715348
v -201.0004045925864 200.9941996621957 0
v -110.2997646415745 119.0114926606469 184.1185065213523
v -124.9796063335582 134.3131385354646 165.5004336562864
v -115.7239280852556 139.0780343549912 196.270984413078
v -139.3797910269169 152.6969997184643 139.9177797691174
v -124.5571573439975 157.0840407716639 174.9643920765149
v -117.9554181086665 159.4154537519493 212.2226048930407
v -156.7724581889622 174.6577224492013 104.6960185894145
v -131.9346183063842 177.6339421346214 145.4810471326585
v -117.3592694057053 179.3504823587928 190.4067060427092
v -119.0314147618362 179.9530871030131 235.6849016095412
v -185.3726136215738 200.9941996621957 59.4156186141954
v -144.8495914748427 200.9941996621957 106.4027520715783
v -108.6791296003823 200.9946903826715 156.5096984598438
v -101.996444489075 200.9946903826715 217.5878972146467
v -129.937171279876 200.9941996621957 272.0599402498369
v -94.49092848503999 106.5059720566493 198.87120486897
v -104.4089873655151 123.4142367690705 212.6664002232966
v -91.08775898319561 109.9096092764471 226.9937205935138
v -112.133817084673 141.2205199521131 228.1602398394445
v -102.7147595879755 124.7558665497693 241.5859840155912
v -91.08481466034111 109.91157215835 254.5892638671623
v -118.9195458283802 159.7888920339946 247.850628954112
v -113.0685169108566 140.8622940048161 258.3655879532769
v -104.5017182004169 123.2150042559162 268.7436206046928
v -94.18475724570952 106.8121816335169 279.8848769460476
v -128.0133169897153 179.1448704794538 273.9837792049827
v -123.3074609774273 158.1268217826314 278.6896352172707
v -116.8308401283975 138.06224297019 285.1669921470141
v -109.1236610113518 118.881942455049 292.8727144376475
v -100.5009355016915 100.4956276696706 301.4947038665941
v -81.98516252080447 90.69790265085808 184.1185065213523
v -77.58253342499236 96.58851124175388 212.6664002232966
v -61.91794991955962 85.27445995287579 196.270984413078
v -76.24157838494764 98.28345976499227 241.5859840155912
v -59.77625024194973 88.86457095345841 228.1602398394445
v -41.58136436403503 83.04266322916752 212.221868812327
v -77.78125221514857 96.49527435136147 268.7436206046928
v -60.13393562997271 87.92925772668011 258.3655879532769
v -41.20748903406601 82.07888821479568 247.850628954112
v -21.04312366251914 81.96798538727629 235.6841655288275
v -82.11469739138742 91.87366891075371 292.8727144376475
v -62.93360328922708 84.16739455958518 285.1662560663005
v -42.86932926020621 77.69086572064461 278.6888991365571
v -21.85122916712301 72.98583779915938 273.9830431242691
v -0.001472161427248153 71.06221353422168 272.0592041691233
v -66.68268088767647 76.01849033929071 165.5004336562864
v -43.91294602948395 76.44247283033812 174.9643920765149
v -48.29791302192278 61.61682581699742 139.9170436884038
v -21.64662748188838 83.6403607686303 190.4067060427092
v -23.36145964897414 69.0649811979217 145.4810471326585
v -26.3377600828319 44.2256921564387 104.6960185894145
v -0.002944322854496306 99.00285598244088 217.5878972146467
v -0.002944322854496306 92.32120598463709 156.5096984598438
v -0.001472161427248153 56.14921827619759 106.4027520715783
v -0.001472161427248153 15.62650282976381 59.41488253348177
vn 0.624917209148407 0.6249338984489441 -0.4679060876369476
vn 0.3622372150421143 0.7428828477859497 -0.5629469752311707
vn 0.4904980659484863 0.490511566400528 -0.7202847003936768
vn 0.06276979297399521 0.8009079098701477 -0.595488429069519
vn 0.1303848773241043 0.5956324338912964 -0.7926044464111328
vn 0.2128833085298538 0.212890088558197 -0.9536029100418091
vn -0.1606344133615494 0.8060289025306702 -0.5696612596511841
vn -0.1959401816129684 0.6514515280723572 -0.732951819896698
vn -0.2163886576890945 0.3149515986442566 -0.9241111874580383
vn -0.1538777947425842 -0.1538803279399872 -0.9760340452194214
vn -0.1924907565116882 0.8538514375686646 -0.4836166203022003
vn -0.3844801783561707 0.6851478815078735 -0.6186658143997192
vn -0.4878323078155518 0.4132518470287323 -0.7689229846000671
vn -0.5160582661628723 0.006808980833739042 -0.8565264344215393
vn -0.4126698076725006 -0.4126791954040527 -0.8120341897010803
vn -0.1855208277702332 0.9116901755332947 -0.366610199213028
vn -0.4414339661598206 0.734466016292572 -0.5154568552970886
vn -0.5669658780097961 0.5107260942459106 -0.6463037729263306
vn -0.6448096036911011 0.1898847967386246 -0.7403812408447266
vn -0.6372107863426208 -0.1921239644289017 -0.7463583946228027
vn -0.5075374841690063 -0.5075494050979614 -0.6962753534317017
vn 0.7428728342056274 0.3622569441795349 -0.5629475116729736
vn 0.5956279039382935 0.1304012089967728 -0.7926051616668701
vn 0.8009054660797119 0.06279107183218002 -0.5954894423484802
vn 0.3149558007717133 -0.2163793295621872 -0.9241119027137756
vn 0.6514554619789124 -0.1959225684404373 -0.7329530119895935
vn 0.8060321807861328 -0.1606130599975586 -0.5696626901626587
vn 0.006820886395871639 -0.5160567164421082 -0.8565272688865662
vn 0.4132631719112396 -0.4878206551074982 -0.7689242959022522
vn 0.6851567625999451 -0.3844618201255798 -0.6186673641204834
vn 0.8538556098937988 -0.1924683153629303 -0.4836182296276093
vn -0.1921087950468063 -0.6372145414352417 -0.7463590502738953
vn 0.1899001449346542 -0.6448035836219788 -0.7403824925422668
vn 0.5107395648956299 -0.5669518709182739 -0.6463053822517395
vn 0.7344764471054077 -0.4414145052433014 -0.5154585838317871
vn 0.9116944074630737 -0.1854970157146454 -0.3666117489337921
vn 0.8055034875869751 0.4808866083621979 -0.3462833762168884
vn 0.8830903768539429 0.2188838869333267 -0.4150196015834808
vn 0.9236828088760376 0.3137525022029877 -0.219930499792099
vn 0.8800725340843201 -0.04886756837368011 -0.472318023443222
vn 0.9567638635635376 0.00281613296829164 -0.2908521294593811
vn 0.9926098585128784 0.1027185916900635 -0.06461124122142792
vn 0.8284766674041748 -0.1781566441059113 -0.5309299230575562
vn 0.8547354936599731 -0.3209629356861115 -0.4079338908195496
vn 0.9272677302360535 -0.3539513051509857 -0.1220372393727303
vn 0.9782272577285767 -0.1124360337853432 0.1744406223297119
vn 0.8719229698181152 -0.06561747193336487 -0.4852264225482941
vn 0.7565044164657593 -0.3671785295009613 -0.5411848425865173
vn 0.7901433110237122 -0.5443364977836609 -0.2817291617393494
vn 0.8630059361457825 -0.4882082045078278 0.1298979222774506
vn 0.9338984489440918 -0.1061611250042915 0.3414139151573181
vn 0.6829122304916382 0.6829404830932617 -0.2592743337154388
vn 0.8261727690696716 0.5409116148948669 -0.1576489508152008
vn 0.7047535181045532 0.7047821283340454 -0.08126859366893768
vn 0.9218107461929321 0.3855650424957275 -0.04005694389343262
vn 0.8235487341880798 0.5671671032905579 0.009433876723051071
vn 0.7044795155525208 0.7044972777366638 0.08597789704799652
vn 0.9657343626022339 0.2382538467645645 0.1029188558459282
vn 0.8991336822509766 0.4243921339511871 0.1070043221116066
vn 0.8119266033172607 0.5585530996322632 0.1696869879961014
vn 0.6808519959449768 0.680868923664093 0.2699223458766937
vn 0.965009331703186 0.1659362316131592 0.2030324935913086
vn 0.9336720108985901 0.3225750029087067 0.1555697619915009
vn 0.8782559633255005 0.4367100298404694 0.1948097199201584
vn 0.788769006729126 0.5399373769760132 0.2937875092029572
vn 0.6534703373908997 0.6534864902496338 0.3820104002952576
vn 0.4808643758296967 0.8055142760276794 -0.346289187669754
vn 0.5408909916877747 0.8261864185333252 -0.1576481461524963
vn 0.3137377202510834 0.9236872792243958 -0.2199328988790512
vn 0.5671462416648865 0.8235629796981812 0.009441148489713669
vn 0.3855433464050293 0.921819806098938 -0.04005691781640053
vn 0.1026982441544533 0.9926115274429321 -0.06461793184280396
vn 0.5585326552391052 0.8119405508041382 0.1696873605251312
vn 0.4243539571762085 0.899151623249054 0.1070049181580544
vn 0.2382316589355469 0.9657405614852905 0.1029117628931999
vn -0.1124507784843445 0.9782258868217468 0.1744388341903687
vn 0.5399175882339478 0.7887824177742004 0.2937878370285034
vn 0.4366782009601593 0.8782716989517212 0.1948101222515106
vn 0.322540670633316 0.9336838126182556 0.1555700898170471
vn 0.1659342646598816 0.9650093913078308 0.2030338197946548
vn -0.1061844304203987 0.9338952898979187 0.3414154052734375
vn 0.2188607454299927 0.8830965161323547 -0.4150186479091644
vn 0.002792721381410956 0.9567644000053406 -0.2908506691455841
vn -0.04889065772294998 0.8800718784332275 -0.4723168015480042
vn -0.3539747893810272 0.9272589087486267 -0.1220361068844795
vn -0.3209852874279022 0.8547279238700867 -0.4079321026802063
vn -0.1781784892082214 0.8284728527069092 -0.5309285521507263
vn -0.4882299602031708 0.8629933595657349 0.1298998892307281
vn -0.5443570613861084 0.7901298999786377 -0.281727135181427
vn -0.3671986162662506 0.7564958930015564 -0.5411831140518188
vn -0.0656403973698616 0.8719220161437988 -0.4852250516414642
f 1//1 2//2 3//3
f 2//2 4//4 5//5
f 2//2 5//5 3//3
f 3//3 5//5 6//6
f 4//4 7//7 8//8
f 4//4 8//8 5//5
f 5//5 8//8 9//9
f 5//5 9//9 6//6
f 6//6 9//9 10//10
f 7//7 11//11 12//12
f 7//7 12//12 8//8
f 8//8 12//12 13//13
f 8//8 13//13 9//9
f 9//9 13//13 14//14
f 9//9 14//14 10//10
f 10//10 14//14 15//15
f 11//11 16//16 17//17
f 11//11 17//17 12//12
f 12//12 17//17 18//18
f 12//12 18//18 13//13
f 13//13 18//18 19//19
f 13//13 19//19 14//14
f 14//14 19//19 20//20
f 14//14 20//20 15//15
f 15//15 20//20 21//21
f 1//1 3//3 22//22
f 3//3 6//6 23//23
f 3//3 23//23 22//22
f 22//22 23//23 24//24
f 6//6 10//10 25//25
f 6//6 25//25 23//23
f 23//23 25//25 26//26
f 23//23 26//26 24//24
f 24//24 26//26 27//27
f 10//10 15//15 28//28
f 10//10 28//28 25//25
f 25//25 28//28 29//29
f 25//25 29//29 26//26
f 26//26 29//29 30//30
f 26//26 30//30 27//27
f 27//27 30//30 31//31
f 15//15 21//21 32//32
f 15//15 32//32 28//28
f 28//28 32//32 33//33
f 28//28 33//33 29//29
f 29//29 33//33 34//34
f 29//29 34//34 30//30
f 30//30 34//34 35//35
f 30//30 35//35 31//31
f 31//31 35//35 36//36
f 1//1 22//22 37//37
f 22//22 24//24 38//38
f 22//22 38//38 37//37
f 37//37 38//38 39//39
f 24//24 27//27 40//40
f 24//24 40//40 38//38
f 38//38 40//40 41//41
f 38//38 41//41 39//39
f 39//39 41//41 42//42
f 27//27 31//31 43//43
f 27//27 43//43 40//40
f 40//40 43//43 44//44
f 40//40 44//44 41//41
f 41//41 44//44 45//45
f 41//41 45//45 42//42
f 42//42 45//45 46//46
f 31//31 36//36 47//47
f 31//31 47//47 43//43
f 43//43 47//47 48//48
f 43//43 48//48 44//44
f 44//44 48//48 49//49
f 44//44 49//49 45//45
f 45//45 49//49 50//50
f 45//45 50//50 46//46
f 46//46 50//50 51//51
f 1//1 37//37 52//52
f 37//37 39//39 53//53
f 37//37 53//53 52//52
f 52//52 53//53 54//54
f 39//39 42//42 55//55
f 39//39 55//55 53//53
f 53//53 55//55 56//56
f 53//53 56//56 54//54
f 54//54 56//56 57//57
f 42//42 46//46 58//58
f 42//42 58//58 55//55
f 55//55 58//58 59//59
f 55//55 59//59 56//56
f 56//56 59//59 60//60
f 56//56 60//60 57//57
f 57//57 60//60 61//61
f 46//46 51//51 62//62
f 46//46 62//62 58//58
f 58//58 62//62 63//63
f 58//58 63//63 59//59
f 59//59 63//63 64//64
f 59//59 64//64 60//60
f 60//60 64//64 65//65
f 60//60 65//65 61//61
f 61//61 65//65 66//66
f 1//1 52//52 67//67
f 52//52 54//54 68//68
f 52//52 68//68 67//67
f 67//67 68//68 69//69
f 54//54 57//57 70//70
f 54//54 70//70 68//68
f 68//68 70//70 71//71
f 68//68 71//71 69//69
f 69//69 71//71 72//72
f 57//57 61//61 73//73
f 57//57 73//73 70//70
f 70//70 73//73 74//74
f 70//70 74//74 71//71
f 71//71 74//74 75//75
f 71//71 75//75 72//72
f 72//72 75//75 76//76
f 61//61 66//66 77//77
f 61//61 77//77 73//73
f 73//73 77//77 78//78
f 73//73 78//78 74//74
f 74//74 78//78 79//79
f 74//74 79//79 75//75
f 75//75 79//79 80//80
f 75//75 80//80 76//76
f 76//76 80//80 81//81
f 1//1 67//67 2//2
f 67//67 69//69 82//82
f 67//67 82//82 2//2
f 2//2 82//82 4//4
f 69//69 72//72 83//83
f 69//69 83//83 82//82
f 82//82 83//83 84//84
f 82//82 84//84 4//4
f 4//4 84//84 7//7
f 72//72 76//76 85//85
f 72//72 85//85 83//83
f 83//83 85//85 86//86
f 83//83 86//86 84//84
f 84//84 86//86 87//87
f 84//84 87//87 7//7
f 7//7 87//87 11//11
f 76//76 81//81 88//88
f 76//76 88//88 85//85
f 85//85 88//88 89//89
f 85//85 89//89 86//86
f 86//86 89//89 90//90
f 86//86 90//90 87//87
f 87//87 90//90 91//91
f 87//87 91//91 11//11
f 11//11 91//91 16//16
